<svg xmlns="http://www.w3.org/2000/svg" version="1.1" xmlns:xlink="http://www.w3.org/1999/xlink" xmlns:svgjs="http://svgjs.dev/svgjs" width="1024" height="1024"><svg version="1.1" xmlns="http://www.w3.org/2000/svg" style="display: block;" viewBox="0 0 2048 2048" width="1024" height="1024">
<path transform="translate(0,0)" fill="rgb(254,253,253)" d="M 0 0 L 2048 0 L 2048 2048 L 0 2048 L 0 0 z"></path>
<path transform="translate(0,0)" fill="rgb(108,2,0)" d="M 713.806 1377.14 C 715.874 1377.51 718.109 1377.84 720.028 1378.73 C 722.873 1380.04 725.35 1382.63 726.437 1385.57 C 727.793 1389.25 727.063 1393.32 725.28 1396.71 C 722.296 1402.39 718.434 1403.76 712.505 1405.39 C 709.752 1404.91 706.587 1404.43 704.117 1403.05 C 701.31 1401.49 699.015 1398.6 698.172 1395.49 C 697.168 1391.79 698.195 1387.86 700.281 1384.73 C 703.646 1379.67 708.119 1378.3 713.806 1377.14 z"></path>
<path transform="translate(0,0)" fill="rgb(108,2,0)" d="M 513.3 123.307 C 514.459 123.367 515.622 123.424 516.777 123.536 C 519.304 123.78 521.221 124.089 522.887 126.097 L 522.165 128.004 C 513.463 134.542 464.941 146.206 448.905 152.256 L 435.484 156.363 C 457.747 138.053 484.874 127.637 513.3 123.307 z"></path>
<path transform="translate(0,0)" fill="rgb(108,2,0)" d="M 696.558 1422.78 L 717.736 1423.14 C 706.987 1463.2 698.21 1505.11 691.808 1546.07 L 669.471 1546 C 676.832 1506.12 684.745 1461.47 696.558 1422.78 z"></path>
<path transform="translate(0,0)" fill="rgb(108,2,0)" d="M 798.313 1421.21 C 801.846 1420.86 807.085 1419.81 810.486 1420.83 C 813.059 1421.6 813.265 1422.54 814.298 1424.78 C 813.908 1430.87 810.098 1437.67 807.69 1443.29 C 799.085 1441.8 793.062 1442.6 785.62 1447.66 C 766.449 1460.71 762.434 1486.71 758.043 1507.63 A 1611.66 1611.66 0 0 0 750.448 1546 C 744.659 1546.12 733.637 1547.64 728.463 1545.21 L 728.183 1542.7 C 738.061 1504.04 747.99 1461.56 753.644 1422.16 C 757.079 1422.02 760.909 1421.59 764.314 1421.94 C 767.17 1422.24 768.229 1423.21 770.093 1425.26 C 771.555 1431.1 769.128 1439.15 768.316 1445.21 C 776.46 1434.4 785.324 1425.78 798.313 1421.21 z"></path>
<path transform="translate(0,0)" fill="rgb(108,2,0)" d="M 1438.93 1419.27 C 1441.35 1419.21 1441.09 1418.8 1443.13 1420.45 C 1443.16 1426.57 1440.16 1433.28 1438.44 1439.18 C 1430.1 1441.48 1422.05 1443.65 1414.86 1448.75 C 1387.6 1468.11 1383.71 1516.53 1378.49 1546.76 C 1370.86 1545.91 1362.99 1546.14 1355.31 1546.05 L 1359.78 1524.43 C 1366.6 1490.11 1377.16 1456.44 1382.69 1421.92 L 1402.47 1422.05 C 1400.94 1431.67 1398.79 1440.91 1395.9 1450.21 C 1408.08 1434.25 1418.09 1423.08 1438.93 1419.27 z"></path>
<path transform="translate(0,0)" fill="rgb(108,2,0)" d="M 538.788 128.28 C 543.188 127.695 547.741 127.981 552.174 128.041 A 460.177 460.177 0 0 0 542.779 141.031 C 555.168 138.909 573.38 136.145 585.378 140.929 L 585.128 142.089 C 579.674 144.607 574.361 147.231 569.097 150.125 C 575.334 149.853 581.594 149.555 587.838 149.588 C 597.962 149.642 613.925 149.867 621.433 157.516 C 619.804 162.417 601.466 169.395 596.334 172.74 C 596.024 172.942 595.72 173.152 595.413 173.357 C 611.461 170.519 627.827 170.101 644.083 170.029 C 638.162 173.665 632.507 177.289 627.125 181.695 C 647.789 177.711 671.317 179.102 690.825 187.253 C 678.908 193.059 666.584 198.589 655.108 205.224 C 637.447 215.435 620.393 227.916 601.392 235.48 C 622.242 218.088 644.161 205.05 666.852 190.471 C 634.043 189.692 605.565 200.919 573.75 200.727 L 564.295 200.551 C 583.782 194.055 603.605 186.374 621.613 176.541 C 585.654 178.743 577.236 189.315 546.198 200.856 C 565.425 185.332 586.034 170.686 608.403 160.116 A 286.692 286.692 0 0 0 499.813 179.263 C 510.449 171.691 520.931 164.502 532.931 159.185 C 543.178 154.645 553.96 151.35 563.995 146.334 L 565.209 145.719 C 534.438 147.992 505.539 153.711 476.989 165.661 C 491.826 148.69 516.578 132.577 538.788 128.28 z"></path>
<path transform="translate(0,0)" fill="rgb(108,2,0)" d="M 1116.7 1421.73 C 1123.93 1422.3 1131.32 1422.22 1138.58 1422.42 C 1133.89 1440.51 1112.4 1509.32 1121.17 1524.34 C 1122.61 1526.79 1124.77 1528.53 1127.6 1529.14 C 1133.36 1530.38 1141.16 1527 1145.91 1524 C 1176.14 1504.91 1181.77 1454.14 1188.77 1422.33 C 1196.32 1422.07 1203.96 1422.49 1211.51 1422.67 A 1150.59 1150.59 0 0 0 1201.82 1461.42 C 1195.81 1490.01 1190.13 1516.72 1187.81 1545.96 L 1168.76 1546.11 C 1168.61 1535 1168.83 1525.3 1171.81 1514.54 C 1164.69 1524.41 1158 1534.11 1147.59 1540.82 C 1138.17 1546.88 1125.59 1550.55 1114.47 1547.72 C 1108.35 1546.16 1103.27 1542.5 1100.05 1537.04 C 1088.03 1516.64 1101.67 1479.99 1107.35 1458.83 A 965.219 965.219 0 0 0 1116.7 1421.73 z"></path>
<path transform="translate(0,0)" fill="rgb(108,2,0)" d="M 877.399 1420.38 C 886.739 1420.12 895.968 1421.82 903.496 1427.68 C 910.614 1433.22 914.723 1441.19 915.653 1450.12 C 916.516 1458.41 914.596 1466.55 908.991 1472.88 C 893.183 1490.72 855.042 1490.11 833.156 1491.05 C 832.634 1497.47 832.246 1503.61 834.105 1509.9 C 836.372 1517.57 841.252 1523.59 848.447 1527.15 C 863.591 1534.64 882.727 1529.82 897.864 1524.86 C 898.776 1530.19 899.049 1535.65 899.503 1541.03 C 891.741 1544.32 883.25 1546.37 874.901 1547.44 C 858.932 1549.47 841.5 1548.46 828.49 1537.85 C 818.363 1529.59 812.89 1517.51 811.574 1504.67 C 809.42 1483.64 817.218 1460.45 830.675 1444.31 C 843.062 1429.45 858.329 1422.17 877.399 1420.38 z"></path>
<path transform="translate(0,0)" fill="rgb(254,253,253)" d="M 875.043 1437.32 C 880.25 1437.34 884.964 1438.4 889.38 1441.25 C 892.729 1443.41 895.323 1446.47 895.869 1450.52 C 896.392 1454.4 894.884 1458.39 892.542 1461.44 C 884.038 1472.53 866.542 1473.01 853.825 1474.3 L 835.204 1476.28 C 837.686 1468.76 840.778 1461.42 845.381 1454.93 C 852.974 1444.22 862.439 1439.5 875.043 1437.32 z"></path>
<path transform="translate(0,0)" fill="rgb(108,2,0)" d="M 1032.71 1375.35 C 1050.66 1373.15 1068.22 1375.69 1084.11 1384.39 L 1077.27 1402.05 C 1058.56 1393.29 1039.43 1391.07 1019.31 1396.28 C 998.657 1401.64 981.85 1414.6 971.144 1433.03 C 960.467 1451.41 954.515 1476.11 960.485 1496.99 A 44.6616 44.6616 0 0 0 982.051 1524.27 C 998.186 1533.17 1018.35 1531.63 1035.45 1526.62 C 1040.45 1509.3 1042.6 1490.59 1046.83 1472.97 C 1034.62 1472.55 1022.39 1472.85 1010.18 1472.99 L 1013.47 1454.87 A 2768.26 2768.26 0 0 0 1072.25 1455.15 C 1067.32 1483.26 1061.34 1511.35 1055.68 1539.34 A 114.969 114.969 0 0 1 1029.33 1546.67 C 1006.12 1550.41 978.128 1549.38 958.51 1534.84 C 945.102 1524.9 938.012 1510.05 935.688 1493.85 C 931.873 1467.27 939.829 1437.93 956.025 1416.57 C 974.445 1392.29 1003.16 1379.47 1032.71 1375.35 z"></path>
<path transform="translate(0,0)" fill="rgb(108,2,0)" d="M 1302.58 1421.36 C 1316.86 1420.31 1330.27 1422.58 1344.37 1424.63 C 1335.03 1463.32 1323.62 1506.99 1321.81 1546.75 L 1300.6 1546.2 L 1304.62 1516.37 C 1300.05 1523.14 1295.34 1529.33 1289.32 1534.86 C 1282.02 1541.1 1273.34 1545.85 1263.84 1547.66 C 1255.19 1549.31 1246.4 1548.22 1239.19 1542.91 C 1230.44 1536.46 1226.19 1525.62 1224.99 1515.13 C 1222.44 1492.89 1230.31 1469.28 1244.2 1451.95 C 1258.97 1433.5 1279.45 1424 1302.58 1421.36 z"></path>
<path transform="translate(0,0)" fill="rgb(254,253,253)" d="M 1299.79 1439.35 C 1306.2 1438.81 1312.46 1439.13 1318.88 1439.45 C 1314.95 1460.96 1310.26 1486 1299.11 1505.01 C 1291.7 1517.64 1281.5 1526.19 1267.15 1529.84 C 1263.4 1529.78 1259.79 1529.35 1256.64 1527.16 C 1251.48 1523.57 1248.93 1518.58 1247.99 1512.46 C 1245.3 1494.87 1252.55 1475.43 1263.07 1461.55 C 1272.57 1449 1284.03 1441.42 1299.79 1439.35 z"></path>
<path transform="translate(0,0)" fill="rgb(108,2,0)" d="M 1339.93 1593.73 C 1342.14 1594.38 1344.38 1595.37 1346.26 1596.71 C 1349.06 1598.7 1350.65 1601.69 1351.06 1605.08 C 1351.46 1608.44 1350.46 1611.12 1348.22 1613.67 C 1340.1 1622.94 1318.22 1622.49 1306.63 1623.14 C 1304.9 1630.91 1302.4 1638.58 1300.19 1646.23 C 1303.4 1648.82 1306.2 1651.85 1309.08 1654.8 C 1304.59 1669.54 1295.95 1685.76 1284.54 1696.34 C 1280.37 1700.2 1275.65 1703.11 1270.12 1704.55 C 1257.91 1707.72 1195.02 1706.88 1179.98 1705.42 C 1163.4 1703.8 1147.32 1700.65 1130.57 1699.86 C 1139.11 1682.38 1147.93 1665.25 1157.77 1648.46 C 1186.9 1602.49 1199.97 1607.34 1248.79 1596.31 C 1247.27 1601.84 1245.43 1607 1243.22 1612.29 C 1226.78 1616.17 1210.39 1618.39 1194.26 1623.76 C 1219.62 1623.87 1221.96 1631.15 1242.56 1637.28 C 1249.51 1639.35 1256.96 1640.01 1264.05 1641.55 C 1270.59 1642.97 1277.05 1645.2 1283.42 1647.26 C 1287.39 1634.79 1289.38 1621.66 1293.24 1609.08 C 1304.72 1607.17 1316.37 1605.87 1327.89 1604.23 C 1331.74 1600.46 1335.44 1596.76 1339.93 1593.73 z"></path>
<path transform="translate(0,0)" fill="rgb(254,253,253)" d="M 1182.88 1638.99 C 1190.53 1638.89 1198.02 1638.81 1205.49 1640.75 C 1215.69 1643.4 1224.46 1649.92 1234.49 1653.05 C 1252.26 1658.59 1270.52 1659.89 1288.04 1666.95 C 1280.52 1678.58 1273.39 1685.61 1260.04 1690 C 1241.5 1691.63 1198.63 1692.57 1180.7 1690.06 C 1171.88 1688.83 1163.66 1686.34 1155.19 1683.63 C 1164.08 1668.63 1172.66 1653.14 1182.88 1638.99 z"></path>
<path transform="translate(0,0)" fill="rgb(108,2,0)" d="M 1547 1363.26 L 1569.76 1362.73 L 1545.3 1482.95 C 1541.24 1503.53 1534.94 1525.02 1534.98 1546.02 L 1513.93 1546 C 1515.14 1535.98 1516.93 1526.22 1519.04 1516.36 C 1507.91 1530.76 1499.39 1540.85 1482 1547.6 C 1473.35 1549.16 1465.2 1549.65 1456.94 1546.06 C 1447.77 1542.08 1441.58 1534.2 1438.11 1524.99 C 1431.15 1506.53 1434.75 1485 1442.56 1467.42 C 1451.25 1447.86 1466.22 1432.2 1486.5 1424.68 C 1502.23 1418.85 1518.89 1419.72 1534.1 1426.61 C 1539.83 1405.81 1542.55 1384.33 1547 1363.26 z"></path>
<path transform="translate(0,0)" fill="rgb(254,253,253)" d="M 1504.77 1438.29 C 1514.16 1437.76 1522.36 1439.94 1531.24 1442.68 C 1527.23 1461.56 1524.37 1481.77 1516.13 1499.35 C 1509.42 1513.65 1499.37 1524.27 1484.23 1529.74 C 1478.35 1530.89 1472.9 1531.56 1467.62 1528.12 C 1462.22 1524.6 1459.55 1518.84 1458.45 1512.65 C 1455.42 1495.75 1461.26 1472.83 1471.23 1458.9 C 1479.51 1447.34 1490.92 1440.64 1504.77 1438.29 z"></path>
<path transform="translate(0,0)" fill="rgb(108,2,0)" d="M 470.713 1370.87 L 494.987 1370.86 C 496.766 1386.76 497.015 1403.02 497.582 1419 A 2112.83 2112.83 0 0 1 498.893 1519.08 C 518.221 1471.77 547.173 1422.19 571.245 1376.67 L 591.83 1376.97 C 594.21 1423.39 594.033 1470.38 592.734 1516.84 C 614.185 1469.93 635.376 1423.12 657.869 1376.67 L 682.065 1377.03 L 671.683 1397.62 C 647.054 1447.24 620.02 1496.07 596.885 1546.36 C 589.379 1545.91 581.781 1546.13 574.261 1546.14 C 573.22 1499.49 572.012 1453.12 573.201 1406.46 C 553.455 1454.51 526.814 1499.94 503.152 1546.15 A 1322.15 1322.15 0 0 0 480.045 1546.16 C 478.823 1487.54 476.64 1429.21 470.713 1370.87 z"></path>
<path transform="translate(0,0)" fill="rgb(108,2,0)" d="M 623.734 1694.43 C 650.243 1692.04 679.113 1695.13 704.306 1703.62 C 734.386 1713.76 757.846 1732.24 771.886 1760.79 A 441.952 441.952 0 0 1 877.003 1742.94 C 936.132 1740.49 998.877 1753 1049.44 1784.87 C 1065.79 1795.17 1080.22 1807.49 1094.39 1820.51 C 1112.35 1813.1 1133.6 1808.97 1152.65 1805.3 C 1179.19 1800.19 1205.97 1798.55 1232.96 1798.77 C 1327.62 1799.55 1400.4 1829.97 1477.76 1882.5 C 1529.89 1861.64 1596.37 1834.11 1651.94 1857.29 C 1661.76 1861.38 1673.92 1868.63 1677.78 1879 C 1680.13 1885.31 1678.61 1892.03 1675.55 1897.82 C 1666.1 1915.64 1640.25 1925.84 1622.05 1931.33 A 168.31 168.31 0 0 1 1506.97 1925.87 C 1495.99 1921.19 1485.48 1915.07 1474.98 1909.41 C 1409.23 1941.96 1336 1977.54 1260.97 1956.14 A 170.551 170.551 0 0 1 1158.48 1873.3 C 1184.66 1899.59 1214.25 1922.63 1250.12 1933.8 C 1321.65 1956.08 1393.18 1927.89 1456.17 1894.65 C 1436.03 1878.76 1413.31 1865.05 1390.11 1854.12 C 1304.31 1813.69 1194.84 1797.25 1103.76 1829.96 C 1111.66 1840.81 1118.91 1851.94 1124.57 1864.15 C 1134.95 1886.58 1137.85 1909.66 1129.1 1933.18 C 1120.21 1957.1 1101 1974.16 1078.26 1984.69 C 1062.51 1991.25 1046.17 1994.82 1029.06 1994.95 C 1005.63 1995.12 980.002 1988.35 963.139 1971.27 C 952.914 1960.91 949.082 1949.56 949.265 1935.29 C 924.898 1933.36 902.828 1928.54 881.399 1916.3 C 838.305 1891.68 815.094 1850.85 802.224 1804.37 C 841.428 1875.64 871.375 1904.25 950.552 1928.77 A 134.021 134.021 0 0 1 952.795 1923.01 C 971.319 1878.82 1028.33 1846.32 1070.6 1829.13 C 1055.31 1812.47 1035.4 1797.84 1015.35 1787.47 C 941.358 1749.2 854.363 1744.67 775.535 1769.83 C 787.603 1799.72 784.044 1833.5 771.71 1862.73 C 756.471 1898.85 728.536 1931.38 691.565 1946.1 C 674.016 1953.09 654.163 1955.66 636.423 1947.76 C 625.732 1943 615.879 1934.78 611.825 1923.54 C 606.581 1908.99 610.325 1891.12 616.614 1877.45 C 640.561 1825.43 699.989 1786.2 752.245 1767.18 C 740.574 1744.84 722.692 1728.29 699.854 1717.65 C 650.923 1694.86 589.354 1702.49 540.187 1720.51 C 510.786 1731.28 471.628 1752.03 458.281 1782.36 C 454.036 1792.01 452.451 1802.69 456.446 1812.71 C 460.263 1822.3 468.107 1829.5 477.646 1833.2 C 511.773 1846.43 555.267 1826.42 586.257 1812.79 C 562.357 1833.11 531.341 1847.03 500.103 1850.55 C 480.355 1852.78 457.06 1850.59 441.168 1837.41 C 433.156 1830.77 427.585 1821.4 426.859 1810.9 C 425.745 1794.79 436.044 1778.03 446.255 1766.27 C 485.998 1720.5 564.752 1698.3 623.734 1694.43 z"></path>
<path transform="translate(0,0)" fill="rgb(254,253,253)" d="M 1600.66 1859.39 C 1602.48 1859.16 1604.25 1859.11 1606.08 1859.06 C 1623.93 1858.56 1649.58 1860.78 1662.98 1874.21 C 1666.32 1877.55 1668.4 1881.8 1668.13 1886.59 C 1667.79 1892.69 1664.14 1897.99 1659.59 1901.83 C 1637.06 1920.89 1598.94 1924.91 1570.76 1922.69 C 1544.01 1919.85 1521.06 1909.9 1497.4 1897.74 C 1529.66 1880.99 1564.15 1863.51 1600.66 1859.39 z"></path>
<path transform="translate(0,0)" fill="rgb(254,253,253)" d="M 754.242 1776.99 C 756.502 1778 756.938 1779.74 757.771 1781.97 C 768.382 1810.4 763.628 1846.75 750.367 1873.46 C 738.812 1896.73 717.655 1919.14 692.502 1927.42 C 677.611 1932.33 663.135 1931.2 649.197 1924.13 C 642.89 1919.51 638.075 1914.2 635.639 1906.62 C 631.365 1893.34 636.212 1877.7 642.272 1865.65 C 663.676 1823.08 710.161 1791.78 754.242 1776.99 z"></path>
<path transform="translate(0,0)" fill="rgb(254,253,253)" d="M 1078.37 1838.91 C 1084.05 1840.31 1095.92 1859.64 1099.26 1864.85 C 1111.12 1883.38 1117.91 1905.1 1112.62 1927.05 C 1108.29 1945.03 1096.13 1959.99 1080.27 1969.21 C 1059.27 1981.42 1037.43 1982.63 1014.37 1976.41 A 89.2272 89.2272 0 0 1 1005.94 1973.08 C 993.013 1967.34 980.981 1958.12 975.994 1944.39 C 972.235 1934.04 973.931 1923.42 978.604 1913.67 C 996.532 1876.29 1041.16 1852.36 1078.37 1838.91 z"></path>
<path transform="translate(0,0)" fill="rgb(108,2,0)" d="M 320.95 67.9138 C 343.325 79.9671 381.005 115.835 397.604 135.612 C 426.191 122.941 459.353 107.896 490.706 106.294 C 475.407 128.184 452.769 139.717 429.984 152.372 C 443.084 138.765 460.306 128.44 474.971 116.443 C 450.528 126.013 424.946 133.073 400.92 143.648 L 406.93 164.015 C 436.366 170.128 465.299 176.605 493.183 188.15 C 576.713 222.734 678.222 304.454 741.198 369.4 C 755.536 384.187 769.328 400.188 782.594 415.941 C 832.923 475.708 870.994 534.732 937.351 579.548 C 950.981 588.754 965.046 597.411 980.216 603.856 C 971.95 594.828 961.853 587.523 953.311 578.684 C 952.576 575.134 954.636 577.244 955.7 574.224 C 955.01 573.303 954.295 572.368 953.514 571.524 C 947.212 564.707 934.477 553.056 924.929 552.539 L 924.793 552.769 L 926.455 553.163 L 927.427 551.396 C 933.603 550.355 939.558 549.937 945.811 549.717 C 933.984 540.373 895.386 519.364 881.293 513.435 C 895.526 510.882 909.761 511.444 924.121 512.089 C 899.714 497.572 877.545 489.599 848.921 488.788 C 865.17 482.514 880.294 481.097 897.56 480.426 C 875.754 473.776 854.133 464.345 831.394 461.67 C 842.287 457.701 853.176 455.383 864.544 453.299 A 1370.91 1370.91 0 0 0 828.727 443.575 L 838.937 438.374 C 854.733 439.079 869.99 444.507 885.095 448.836 C 857.5 431.965 834.905 424.621 803.057 421.313 C 823.216 411.04 840.825 410.517 862.553 415.683 C 838.45 402.655 809.529 394.598 782.083 394.776 C 801.682 380.529 818.118 379.763 841.518 379.818 C 819.557 373.83 797.395 368.49 774.768 373.539 C 793.978 362.664 812.453 359.283 834.055 356.314 C 804.295 348.767 772.971 342.469 744.06 355.632 C 763.129 341.837 783.696 333.644 805.287 324.677 C 776.389 317.758 739.938 320.146 711.306 327.067 C 734.343 314.921 758.525 302.073 782.781 292.68 C 767.673 293.989 752.524 295.455 737.382 296.265 C 717.961 297.305 698.699 297.718 679.428 300.575 C 706.262 286.325 737.006 275.598 766.918 269.901 C 725.59 261.099 698.64 263.012 657.74 265.215 C 670.851 259.043 683.328 251.515 696.472 245.383 C 706.124 240.879 716.487 237.859 725.877 232.838 C 692.407 221.207 654.528 225.98 620.265 231.857 C 631.609 224.686 643.037 216.909 655.844 212.619 C 690.98 200.849 722.571 215.632 753.658 231.244 A 353.268 353.268 0 0 1 696.289 252.072 C 725.06 251.049 762.997 253.38 788.353 268.081 C 778.569 273.56 767.565 277.507 756.906 280.951 C 751.379 282.737 741.855 283.209 737.404 286.473 L 739.612 286.004 L 739.4 287.806 L 740.36 286.291 C 749.419 284.787 758.251 283.428 767.463 283.72 C 775.378 283.971 794.651 285.47 800.054 291.295 C 797.32 297.266 766.586 307.203 759.146 311.2 L 757.909 311.874 C 783.798 308.26 805.491 311.142 828.885 323.106 C 819.33 328.15 809.04 331.117 798.806 334.481 C 820.065 337.564 840.732 340.908 858.883 353.212 C 847.653 360.35 835.405 362.944 822.57 365.541 C 837.705 368.885 851.526 373.092 865.497 379.857 C 855.132 384.821 845.104 388.02 833.934 390.732 C 843.832 396.087 887.94 416.831 891.557 423.302 C 885.484 427.541 872.638 426.319 865.178 426.525 C 880.065 435.783 896.202 445.242 909.838 456.21 C 899.655 458.201 889.586 458.012 879.268 458.014 A 1356.59 1356.59 0 0 1 930.387 487.577 C 923.512 488.041 916.941 489.007 910.173 490.299 C 917.059 494.875 927.278 498.189 932.498 504.552 C 931.063 505.972 929.998 507.014 929.194 508.884 C 934.563 514.797 943.097 519.677 949.366 524.904 C 943.75 525.092 938.306 524.579 932.723 524.051 C 943.876 532.525 954.623 541.082 964.54 551.003 C 961.892 552.568 959.035 553.915 956.306 555.342 C 964.048 562.77 972.495 569.063 978.781 577.873 L 967.853 577.233 C 975.159 581.654 988.123 587.585 992.629 594.702 C 990.585 596.579 987.97 596.336 985.264 596.705 L 985.334 597.875 C 988.531 601.444 993.01 601.21 996.381 604.118 C 997.366 604.968 997.105 604.741 997.067 606.02 C 995.557 608.937 993.368 610.121 990.702 611.83 C 1077.05 655.713 1139.23 668.252 1236.03 662.425 C 1312.06 657.848 1382.32 648.073 1456.59 672.634 A 280.214 280.214 0 0 1 1555.5 729.938 C 1563.94 737.43 1571.19 747.194 1580.22 753.867 C 1589.01 760.363 1602.61 760.773 1612.84 764.877 C 1628.73 771.246 1644.21 779.534 1658.65 788.74 C 1682.99 804.252 1703.65 825.52 1724.18 845.54 C 1761.65 882.091 1803.31 903.849 1854.43 914.925 C 1866.68 917.576 1879.31 918.283 1891.45 921.357 L 1892.65 921.674 C 1863.9 933.415 1831.14 933.836 1800.59 931.839 C 1826.7 942.925 1853.16 951.352 1879.67 961.202 C 1914.48 974.134 1951.99 995.611 1968.03 1030.77 C 1934.13 1014.04 1899.51 1005.6 1862.9 997.183 C 1883.29 1007.8 1902.38 1018.76 1919.32 1034.59 C 1952.62 1065.73 1973.66 1102.73 1975.3 1148.85 C 1957.34 1120.44 1940.41 1104.73 1910.44 1089.18 C 1915.55 1093.87 1920.73 1098.63 1925.41 1103.75 C 1955.59 1136.73 1971.64 1188.88 1969.88 1233.08 C 1959.04 1209.59 1942.47 1185.12 1922.2 1168.87 C 1941.6 1207.97 1948.58 1247.34 1951.39 1290.5 C 1922.46 1197.63 1819 1166.21 1767.14 1089.92 C 1747.66 1061.27 1735.78 1029.2 1724.52 996.715 C 1698.1 920.475 1679.05 861.925 1616.88 806.236 C 1661.54 888.553 1665.12 942.334 1656.6 1033.24 C 1653.86 1057.31 1650.43 1081.13 1650.62 1105.41 C 1651.07 1163.01 1671.77 1234.3 1711.33 1277.39 C 1722.08 1289.11 1748.42 1304.56 1753.93 1317.37 C 1758.61 1328.28 1759.22 1342.6 1761.12 1354.25 A 765.399 765.399 0 0 0 1768.04 1389.69 C 1779.76 1443.9 1796.56 1501.83 1825.68 1549.5 C 1834.98 1564.72 1846.49 1578.34 1856.39 1593.14 C 1844.52 1611.24 1830.87 1627.25 1816.03 1642.94 C 1822.24 1656.71 1829.72 1669.86 1835.54 1683.81 C 1830.31 1699.14 1823.72 1716.27 1814.9 1729.87 C 1769.99 1747.31 1718.03 1743.69 1671.67 1735.38 C 1676.31 1702.02 1690.61 1672.81 1715.06 1649.48 C 1723.29 1641.63 1732.53 1634.95 1740.76 1627.14 C 1753.81 1614.76 1761.53 1600.08 1761.84 1581.78 C 1763 1514.54 1718.98 1428.96 1670.84 1382.92 C 1637.46 1350.99 1595.11 1323.28 1558.89 1293.86 C 1514.55 1257.85 1478.94 1225.51 1439.07 1184.57 C 1443.82 1208.85 1450.24 1230.06 1464.58 1250.54 C 1472.03 1261.18 1484.57 1273.18 1488.15 1285.76 C 1492.68 1301.66 1469.98 1337.89 1462.1 1352.16 L 1437.51 1352.18 C 1446.45 1338.83 1454.68 1325.36 1461.97 1311.03 C 1433.68 1319.92 1401.45 1321.1 1371.99 1321.16 C 1372.04 1328.56 1371.88 1335.86 1371.37 1343.25 C 1382.45 1345.49 1393.44 1348.6 1404.4 1351.37 C 1387.26 1352.83 1369.7 1352.16 1352.5 1352.1 C 1353.29 1347.05 1354.13 1341.98 1354.63 1336.89 C 1356.19 1321.3 1351.98 1308.91 1345.79 1294.76 C 1331.85 1262.89 1309.28 1233.7 1290.98 1204.08 C 1274.43 1177.3 1260.66 1148.46 1240.6 1124 C 1213.83 1127.97 1186.73 1132.18 1159.73 1134.14 C 1077.15 1140.11 994.93 1127.84 916.201 1103.05 C 923.004 1138.61 929.588 1172.78 942.298 1206.8 C 949.699 1226.62 960.865 1245.47 966.714 1265.78 C 970.84 1280.1 972.258 1295.32 974.423 1310.04 C 976.672 1325.34 979.571 1340.13 983.462 1355.1 C 976.776 1352.56 970.802 1351.09 963.653 1350.81 C 962.001 1344.54 960.539 1338.2 958.989 1331.9 C 945.878 1337.17 933.264 1340.61 919.472 1343.4 L 924.56 1357.44 C 919.433 1358.59 914.242 1359.54 909.092 1360.58 C 901.453 1349.33 895.573 1336.55 888.247 1324.98 C 874.858 1303.84 859.116 1283.05 847.778 1260.76 C 841.559 1248.54 840.882 1234.63 835.026 1222.22 C 823.809 1198.45 808.174 1175.85 794.448 1153.38 C 777.22 1125.18 760.635 1094.14 739.559 1068.69 C 687.778 1097.36 632.74 1120.07 580.176 1147.29 C 548.416 1163.73 516.397 1181.2 489.433 1204.96 C 478.493 1214.6 469.446 1224.88 461.536 1237.15 C 445.199 1262.48 416.641 1330.75 412.272 1360.31 C 410.567 1371.84 414.425 1383.35 413.419 1394.92 C 410.889 1424.05 382.075 1422.41 368.399 1435.33 C 366.352 1437.26 365.801 1439.22 365.938 1441.94 C 366.408 1451.23 381.02 1460.38 387.315 1466.2 C 392.671 1471.15 396.876 1477.27 396.981 1484.76 C 397.151 1496.89 390.524 1507.21 382.393 1515.64 C 352.569 1546.58 301.705 1568.78 258.803 1569.67 A 135.682 135.682 0 0 1 258.506 1563.01 C 257.99 1537.11 257.331 1480.05 272.589 1459.56 C 280.796 1448.54 293.385 1440.94 298.832 1427.83 C 304.062 1415.24 299.956 1400.16 308.76 1388.88 C 315.048 1380.83 324.584 1375.86 331.792 1368.68 C 353.149 1347.41 367.808 1315.17 376.391 1286.69 C 383.687 1262.48 390.001 1237.22 395.062 1212.45 C 398.576 1195.26 401 1177.48 405.696 1160.57 C 407.072 1155.62 408.726 1149.45 412.07 1145.5 C 421.793 1133.99 449.952 1114.97 463.154 1104.61 C 511.325 1066.79 562.067 1030.09 604.549 985.847 C 593.655 977.085 582.672 968.384 572.962 958.286 C 525.374 908.793 513.976 848.774 516.139 782.756 C 517.409 743.992 520.172 706.104 515.211 667.465 C 505.138 589.02 473.354 519.973 430.988 453.885 C 393.99 477.784 373.945 473.294 333.473 479.751 C 300.494 485.013 265.269 501.001 252.941 534.115 C 248.809 545.213 246.938 557.469 239.571 567.075 C 229.462 580.255 209.042 588.85 192.919 590.799 C 185.131 591.741 167.239 589.827 161.25 584.503 C 159.824 583.235 160.314 583.827 160.252 581.543 C 165.366 579.951 170.882 578.846 175.855 576.905 C 193.473 570.028 207.859 553.524 222.554 542.108 C 227.288 538.431 233.133 536.041 237.447 531.889 C 239.747 529.675 241.87 526.859 243.051 523.875 C 244.473 520.279 244.331 516.532 242.594 513.071 C 236.704 501.333 217.732 495.167 206.148 491.144 L 196.514 496.703 C 206.043 499.722 216.383 503.074 224.711 508.74 C 229.343 511.892 232.196 515.055 233.305 520.598 C 227.043 527.393 218.75 532.857 211.401 538.478 C 188.973 555.632 164.916 574.468 135.232 575.154 C 129.748 575.281 124.232 574.052 120.254 570.043 C 112.943 562.676 114.089 551.61 114.303 542.136 C 107.799 537.905 102.655 533.863 98.6163 527.09 C 91.7592 515.591 91.3611 501.057 94.5933 488.328 C 107.073 439.18 181.621 385.139 211.506 339.648 C 228.943 313.106 226.241 286.936 248.834 257.923 C 262.336 240.584 278.989 227.561 297.764 216.393 C 287.607 206.922 278.597 197.026 272.089 184.65 C 257.259 156.447 255.184 123.602 264.714 93.404 C 281.773 106.165 295.07 122.47 313.759 133.248 C 314.829 111.456 316.264 89.2637 320.95 67.9138 z"></path>
<path transform="translate(0,0)" fill="rgb(254,253,253)" d="M 1873.41 1081.82 C 1873.96 1081.99 1874.52 1082.11 1875.05 1082.32 C 1895.57 1090.22 1927.45 1127.34 1937.62 1147.4 C 1931.3 1143.1 1919.26 1126.7 1913.05 1120.13 A 693.09 693.09 0 0 0 1873.41 1081.82 z"></path>
<path transform="translate(0,0)" fill="rgb(254,253,253)" d="M 1856.6 1009.72 C 1862.99 1011.36 1869.46 1015.49 1875.18 1018.71 C 1903.22 1034.51 1924.1 1054.45 1942.99 1080.39 C 1932.37 1074.2 1916.8 1055.51 1906.19 1046.62 C 1890.35 1033.36 1872.79 1022.48 1856.6 1009.72 z"></path>
<path transform="translate(0,0)" fill="rgb(254,253,253)" d="M 1839.66 966.015 C 1869.72 969.264 1902.95 985.684 1928.03 1002.11 C 1913.75 1000.97 1854.72 973.239 1839.66 966.015 z"></path>
<path transform="translate(0,0)" fill="rgb(254,253,253)" d="M 1746.82 1387.9 L 1748.39 1388.72 C 1751.36 1397.35 1753.1 1406.44 1755.1 1415.35 C 1747.22 1419.26 1738.88 1422.77 1730.54 1425.58 L 1728.91 1424.49 A 1637.63 1637.63 0 0 0 1715.4 1402.58 C 1726.11 1398 1736.47 1393.23 1746.82 1387.9 z"></path>
<path transform="translate(0,0)" fill="rgb(254,253,253)" d="M 497.35 1100.73 C 502.782 1103.19 532.712 1141.57 538.556 1148.51 C 532.32 1151.76 526.455 1155.46 520.539 1159.25 C 519.399 1160.01 518.149 1160.57 516.927 1161.19 C 514.27 1159.58 488.02 1120.93 481.854 1114.22 C 486.736 1109.38 492.046 1105.09 497.35 1100.73 z"></path>
<path transform="translate(0,0)" fill="rgb(254,253,253)" d="M 779.174 1043.94 C 786.509 1046.72 793.767 1051.31 800.758 1054.93 C 812.1 1060.8 823.466 1066.2 835.206 1071.24 C 827.54 1073.11 819.905 1074.51 812.114 1075.75 C 797.339 1078.21 782.375 1078.27 767.459 1077.58 L 755.373 1058.9 L 779.174 1043.94 z"></path>
<path transform="translate(0,0)" fill="rgb(254,253,253)" d="M 124.947 488.097 C 127.462 487.959 130.72 487.511 133.151 488.263 C 138.15 489.808 141.741 493.842 144.014 498.425 C 148.441 507.35 148.936 521.149 145.549 530.422 C 143.272 536.653 139.832 538.717 134.034 541.492 C 131.875 541.716 129.483 542.059 127.338 541.627 C 122.91 540.736 119.02 536.904 116.658 533.245 C 111.408 525.116 110.32 512.907 112.74 503.685 C 114.774 495.932 118.095 491.999 124.947 488.097 z"></path>
<path transform="translate(0,0)" fill="rgb(108,2,0)" d="M 130.729 496.456 C 133.127 497.903 134.142 499.138 135.151 501.689 C 137.971 508.819 139.688 522.429 135.961 529.479 C 134.454 532.33 132.949 532.917 130.121 533.974 C 128.59 532.629 127.066 531.252 125.848 529.607 C 121.903 524.277 119.798 516.9 120.933 510.321 C 122.081 503.669 125.271 500.107 130.729 496.456 z"></path>
<path transform="translate(0,0)" fill="rgb(254,253,253)" d="M 1052.26 660.924 C 1070.68 666.624 1088.77 671.713 1107.71 675.38 C 1092.4 682.558 1079 690.825 1065.68 701.249 C 1054.63 709.398 1045.23 719.989 1036.24 730.284 C 1045.19 709.097 1049.64 683.686 1052.26 660.924 z"></path>
<path transform="translate(0,0)" fill="rgb(254,253,253)" d="M 923.992 1214.89 C 927.605 1216.66 931.302 1229.5 932.883 1233.68 C 912.399 1246.37 890.47 1250.3 866.765 1252.34 L 865.506 1252.11 C 860.536 1248.76 858.558 1235.67 857.108 1230.11 C 881.047 1228.27 901.732 1224.38 923.992 1214.89 z"></path>
<path transform="translate(0,0)" fill="rgb(254,253,253)" d="M 938.715 1246.99 C 944.119 1252.47 947.454 1265.81 949.841 1273.1 C 932.949 1278.41 916.054 1283.39 898.548 1286.29 C 895.016 1286.88 888.259 1288.56 885.42 1286.51 C 879.941 1278.44 874.917 1270.35 870.087 1261.87 C 894.167 1262.81 917.281 1258.06 938.715 1246.99 z"></path>
<path transform="translate(0,0)" fill="rgb(254,253,253)" d="M 1736.6 1328.79 C 1740.51 1332.94 1744.43 1365.61 1745.65 1372.87 C 1732.74 1379.71 1719.45 1385.52 1706.05 1391.32 L 1700.42 1385.19 L 1683.91 1368.31 C 1704.51 1358.91 1722.09 1346.18 1736.6 1328.79 z"></path>
<path transform="translate(0,0)" fill="rgb(254,253,253)" d="M 912.173 1179.99 L 913.876 1180.64 C 916.967 1187.72 918.524 1195.88 920.497 1203.36 C 898.906 1212.81 876.59 1217.57 853.13 1218.63 C 849.412 1209.95 845.198 1201.49 841.113 1192.98 C 865.736 1191.17 888.805 1188.54 912.173 1179.99 z"></path>
<path transform="translate(0,0)" fill="rgb(254,253,253)" d="M 950.335 1286.07 L 951.147 1286.38 C 954.932 1293.27 956.603 1311.39 958.144 1319.75 C 945.622 1326.3 928.67 1331.7 914.499 1332.01 C 911.489 1330.34 910.634 1327.74 908.919 1324.8 C 903.541 1316.06 898.419 1307.13 893.188 1298.3 C 913.315 1296.71 931.316 1292.72 950.335 1286.07 z"></path>
<path transform="translate(0,0)" fill="rgb(254,253,253)" d="M 1359.07 1088.92 L 1360.98 1089.05 C 1368.01 1095.04 1373.71 1105.23 1379.52 1112.64 C 1347.83 1119.24 1313.97 1122.17 1281.76 1125.25 C 1277.92 1125.72 1272.9 1126.83 1269.15 1125.72 C 1266.01 1124.78 1264.35 1121.15 1262.75 1118.52 A 645.171 645.171 0 0 0 1359.07 1088.92 z"></path>
<path transform="translate(0,0)" fill="rgb(254,253,253)" d="M 1695.83 1291.54 C 1701.47 1293.43 1719.84 1311.44 1725.92 1316.2 C 1711.62 1332.52 1693.44 1349.91 1673.04 1358.22 A 620.046 620.046 0 0 0 1639.93 1332.6 C 1662.39 1322.37 1679.65 1310.18 1695.83 1291.54 z"></path>
<path transform="translate(0,0)" fill="rgb(254,253,253)" d="M 622.844 987.782 C 647.582 1014.24 663.169 1046.04 675.452 1079.72 L 656.403 1089.46 L 649.369 1092.75 C 642.778 1059.86 625.981 1035.66 606.332 1009.34 C 612.753 1002.89 617.764 995.285 622.844 987.782 z"></path>
<path transform="translate(0,0)" fill="rgb(254,253,253)" d="M 271.77 110.601 C 288.691 123.865 293.574 133.055 314.506 144.329 C 317.096 168.186 320.437 178.989 331.274 200.184 C 329.275 202.266 326.454 202.948 323.799 203.993 L 307.977 210.219 C 304.197 206.585 300.502 202.827 297.152 198.789 C 275.978 173.273 268.682 143.361 271.77 110.601 z"></path>
<path transform="translate(0,0)" fill="rgb(254,253,253)" d="M 1427.54 1214 C 1430.62 1216.81 1439.61 1244.27 1442.93 1250.82 C 1409.01 1258.68 1385.32 1264.08 1349.7 1264.07 C 1344.41 1254.64 1338.14 1245.49 1332.37 1236.32 C 1366.01 1236 1397.16 1227.92 1427.54 1214 z"></path>
<path transform="translate(0,0)" fill="rgb(254,253,253)" d="M 550 1061.02 C 564.616 1076.78 578.81 1101.97 588.431 1121.27 L 548.888 1141.99 C 544.964 1139.41 539.954 1128.59 537.035 1124.19 A 319.745 319.745 0 0 0 510.745 1089.8 A 2462.43 2462.43 0 0 1 550 1061.02 z"></path>
<path transform="translate(0,0)" fill="rgb(254,253,253)" d="M 900.989 1128.27 C 904.773 1134.41 908.787 1158.97 911.068 1167.91 C 886.752 1176.95 858.866 1180.62 833.008 1181.12 L 829.094 1175.15 L 809.251 1141.59 C 840.904 1141.33 870.485 1136.34 900.989 1128.27 z"></path>
<path transform="translate(0,0)" fill="rgb(254,253,253)" d="M 594.069 1021.79 C 611.972 1034.31 630.903 1076.46 639.059 1097.07 C 628.022 1101.67 617.19 1107.21 606.336 1112.25 L 598.873 1115.63 C 591.723 1090.99 576.769 1070.35 563.166 1048.99 C 573.511 1039.84 584.321 1031.64 594.069 1021.79 z"></path>
<path transform="translate(0,0)" fill="rgb(254,253,253)" d="M 1448.72 1261.25 C 1457.27 1271.28 1466.87 1282.39 1471.67 1294.79 C 1444.11 1305.78 1410.64 1308.71 1381.11 1309.97 C 1377.7 1310.14 1374.78 1310.13 1371.41 1309.5 C 1366.98 1304.12 1359.24 1282.55 1355.55 1274.65 C 1387.41 1274.94 1418.08 1269.78 1448.72 1261.25 z"></path>
<path transform="translate(0,0)" fill="rgb(254,253,253)" d="M 1718.24 1671.61 C 1731.58 1674.19 1745.42 1680.95 1758.33 1685.36 C 1775.5 1691.23 1792.94 1695.07 1810.74 1698.43 C 1808.62 1704.04 1806.19 1709.15 1803.29 1714.39 C 1796.89 1716.75 1790.48 1718.29 1783.84 1719.78 C 1754.11 1725.93 1723.1 1724.94 1693.12 1721.1 A 164.233 164.233 0 0 1 1718.24 1671.61 z"></path>
<path transform="translate(0,0)" fill="rgb(254,253,253)" d="M 378.925 1482.28 C 379.134 1482.85 379.426 1483.4 379.552 1484 C 380.468 1488.33 377.15 1494.5 374.589 1497.75 C 355.731 1521.73 307.568 1546.83 277.33 1550.86 C 274.077 1544.73 278.598 1502.35 279.28 1493.83 C 314.808 1495.2 344.547 1490.32 378.925 1482.28 z"></path>
<path transform="translate(0,0)" fill="rgb(254,253,253)" d="M 1657.89 1231.7 C 1660.01 1233.69 1679.85 1268.55 1684.64 1275.42 C 1670.05 1296.55 1649.16 1309.6 1627.52 1322.58 L 1618.62 1315.68 A 583.732 583.732 0 0 1 1585.1 1289.02 C 1618.17 1273.12 1635.31 1260.37 1657.89 1231.7 z"></path>
<path transform="translate(0,0)" fill="rgb(254,253,253)" d="M 851.948 1080.26 C 857.2 1078.53 887.471 1093.06 895.599 1095.53 A 949.844 949.844 0 0 1 899.555 1115.22 C 874.537 1122.7 849.75 1126.52 823.8 1128.27 C 816.209 1129.23 808.358 1129.19 800.707 1129.47 C 793.176 1116.19 785.185 1103.14 777.409 1090 C 803.054 1090.33 827.041 1085.64 851.948 1080.26 z"></path>
<path transform="translate(0,0)" fill="rgb(254,253,253)" d="M 466.49 1125.8 C 470.786 1126.55 501.025 1161.6 507.378 1167.66 C 481.684 1184.9 461.291 1205.66 443.253 1230.77 C 432.741 1225.22 422.217 1219.76 412.977 1212.2 A 2540.8 2540.8 0 0 1 420.864 1174.93 L 433.183 1183.07 C 442.443 1189.53 451.443 1195.16 461.971 1199.33 C 450.765 1184.7 439.251 1171.23 425.842 1158.55 C 430.004 1154.4 434.315 1150.38 438.565 1146.31 C 452.266 1159.74 466.906 1171.94 481.408 1184.48 C 471.498 1168.3 461.934 1152.63 449.869 1137.93 C 455.05 1133.53 460.946 1129.74 466.49 1125.8 z"></path>
<path transform="translate(0,0)" fill="rgb(254,253,253)" d="M 1387.93 1124.51 C 1394.34 1127.73 1406.89 1147.97 1411.62 1154.48 C 1372.75 1162.84 1332.72 1165.53 1293.11 1167.94 C 1288.92 1165.92 1273.95 1136.33 1270.48 1130.27 C 1304.49 1134.78 1353.35 1127.34 1387.93 1124.51 z"></path>
<path transform="translate(0,0)" fill="rgb(254,253,253)" d="M 1419.36 1165.1 L 1419.69 1165.21 C 1422.2 1168.26 1423.85 1195.91 1425.19 1202.2 C 1392.23 1216.33 1361.13 1224.7 1325.16 1226.43 L 1316.89 1211.84 A 2258.59 2258.59 0 0 0 1296.46 1176.86 C 1336.78 1177.13 1380.59 1177.28 1419.36 1165.1 z"></path>
<path transform="translate(0,0)" fill="rgb(254,253,253)" d="M 1595.32 772.569 C 1614.91 776.932 1635.1 793.893 1649.38 807.168 C 1708.9 862.495 1729.76 920.48 1756.91 994.342 C 1767.24 1022.45 1777.38 1049.75 1792.84 1075.56 C 1817.57 1116.86 1857.71 1142.2 1885.96 1179.31 C 1878.06 1175.37 1851.74 1151.81 1842.84 1144.51 C 1824.39 1129.38 1805.41 1114.26 1790.38 1095.56 C 1756.95 1053.95 1743.68 1000.27 1726 950.975 C 1714.1 917.791 1699.64 884.007 1680.66 854.2 A 217.743 217.743 0 0 0 1627.12 796.856 C 1616.07 788.602 1603.43 784.217 1595.32 772.569 z"></path>
<path transform="translate(0,0)" fill="rgb(254,253,253)" d="M 1634.49 1163.59 C 1637.68 1167.15 1646.5 1203.11 1649.4 1211.53 C 1630.2 1239.45 1601.18 1260.87 1573.28 1279.54 C 1568.52 1276.24 1564 1272.44 1559.43 1268.87 C 1549.83 1261.33 1540.74 1253.2 1531.58 1245.12 C 1577.11 1220.97 1601.61 1204.56 1634.49 1163.59 z"></path>
<path transform="translate(0,0)" fill="rgb(254,253,253)" d="M 1757.82 1428.14 C 1762.53 1434.95 1769.56 1461.96 1772.93 1472.28 C 1789.22 1522.32 1801.26 1551.83 1834.13 1594.12 C 1822.22 1609.67 1809.08 1624.04 1795.48 1638.11 C 1799.15 1653.5 1806.73 1666.32 1813.56 1680.44 L 1791.79 1676.57 C 1772.29 1670.91 1753.51 1664.4 1734.6 1657.03 C 1753.78 1642.61 1769.26 1630.22 1776.51 1606.37 C 1791.82 1555.96 1761.09 1481.65 1737.25 1436.45 C 1744.19 1433.87 1751 1431.02 1757.82 1428.14 z"></path>
<path transform="translate(0,0)" fill="rgb(254,253,253)" d="M 645.699 310.396 C 657.617 316.591 672.615 330.656 681.268 341.103 C 682.146 345.972 682.787 350.769 683.032 355.716 C 683.734 369.899 682.619 384.036 680.737 398.09 C 675.371 438.142 663.202 452.224 636.615 481.48 C 620.107 499.645 603.149 517.382 586.701 535.605 C 580.203 542.757 574.12 550.226 568.009 557.706 C 573.763 532.418 579.147 507.791 590.589 484.3 C 598.039 469.006 607.19 454.972 616.254 440.626 C 646.091 393.404 651.343 366.071 645.699 310.396 z"></path>
<path transform="translate(0,0)" fill="rgb(254,253,253)" d="M 410.132 1225.22 C 419.677 1229.52 429.111 1233.91 438.424 1238.7 C 423.733 1266.18 397.037 1329.2 394.141 1358.87 C 393.032 1370.24 395.375 1382.07 396.012 1393.46 C 386.521 1412.67 367.148 1410.97 353.155 1423.96 C 349.134 1427.69 346.182 1432.5 346.06 1438.11 C 345.809 1449.7 354.604 1460.2 361.89 1468.35 C 350.717 1471.14 339.532 1473.94 328.031 1474.93 C 312.729 1476.66 297.681 1477.07 282.31 1477.01 C 290.198 1461.76 306.039 1452.59 313.262 1437.26 C 318.961 1425.17 318.781 1410.81 322.751 1398.08 L 323.187 1396.71 L 326.337 1394.81 C 382.258 1360.64 395.93 1284.18 410.132 1225.22 z"></path>
<path transform="translate(0,0)" fill="rgb(254,253,253)" d="M 1630.63 1075.82 C 1629.38 1094.31 1628.62 1113.86 1630.93 1132.27 C 1600.58 1173.92 1561.99 1206.02 1519.61 1234.88 A 778.205 778.205 0 0 1 1493.75 1211.34 L 1466.15 1183.84 C 1481.62 1176.11 1497.77 1169.85 1513.13 1161.81 C 1555.19 1139.79 1597.04 1109.38 1630.63 1075.82 z"></path>
<path transform="translate(0,0)" fill="rgb(254,253,253)" d="M 817.725 494.669 C 826.48 504.569 833.988 516.274 841.999 526.847 C 839.622 555.82 838.342 585.131 821.534 610.101 C 816.422 617.697 809.736 624.284 802.464 629.806 C 790.333 639.018 776.507 646.158 763.199 653.494 C 737.875 667.454 711.903 680.74 687.883 696.885 C 653.042 720.302 622.433 746.785 594.05 777.66 C 589.685 782.714 585.806 788.192 581.83 793.556 A 167.739 167.739 0 0 1 586.286 757.458 C 603.097 685.177 636.75 676.915 700.711 653.789 C 715.99 648.265 731.463 642.335 745.283 633.688 C 792.811 603.951 805.932 545.748 817.725 494.669 z"></path>
<path transform="translate(0,0)" fill="rgb(254,253,253)" d="M 1638.73 952.753 C 1642.15 968.729 1636.88 1022.21 1633.41 1038.83 C 1597.55 1084.66 1506.05 1141.97 1454.86 1172.38 A 493.569 493.569 0 0 1 1435.69 1151.37 C 1427.95 1142.95 1420.97 1133.7 1413.79 1124.79 C 1473.7 1094.28 1526.63 1053.9 1577.36 1010.04 C 1598.68 991.618 1619.43 973.328 1638.73 952.753 z"></path>
<path transform="translate(0,0)" fill="rgb(254,253,253)" d="M 1560.74 769.922 C 1561.12 769.983 1561.52 769.978 1561.88 770.106 C 1571.56 773.497 1602.39 822.495 1607.85 832.975 C 1587.63 843.764 1565.49 851.491 1544.22 859.946 C 1499.49 877.718 1461.76 896.627 1424.71 927.777 C 1378.76 966.42 1367.86 1001.89 1362.75 1059.52 C 1346.88 1034.01 1332.26 1006.98 1314.82 982.556 C 1345.33 918.133 1402.37 849.18 1465.08 814.209 C 1495.72 797.118 1529.23 785.379 1560.74 769.922 z"></path>
<path transform="translate(0,0)" fill="rgb(254,253,253)" d="M 1621.68 865.98 C 1628.82 874.817 1634.01 908.652 1635.83 921.31 C 1619.59 939.653 1600.21 955.682 1581.6 971.556 A 2190.37 2190.37 0 0 1 1495.3 1042.18 C 1465.13 1065.95 1435.57 1090.73 1404.86 1113.77 L 1396.02 1102.18 C 1386.96 1090.76 1377.98 1079.35 1369.49 1067.49 A 119.031 119.031 0 0 1 1373.2 1049.83 C 1399.83 955.703 1543.97 909.122 1621.68 865.98 z"></path>
<path transform="translate(0,0)" fill="rgb(254,253,253)" d="M 327.178 83.8869 C 356.436 111.502 393.234 135.053 398.914 178.146 C 401.251 195.882 398.506 211.176 387.538 225.486 C 394.796 218.78 402.446 211.624 406.652 202.495 C 409.084 197.217 408.336 186.481 411.703 183.044 L 415.081 183.305 C 420.698 189.259 417.013 202.047 417.52 209.834 C 417.874 215.265 418.935 220.823 420.265 226.094 C 428.651 259.323 469.334 294.516 497.921 311.66 C 483.052 296.827 468.221 281.313 457.333 263.239 C 444.082 241.24 437.814 213.657 443.921 188.487 C 453.581 190.558 462.795 193.269 471.986 196.886 C 470.649 200.165 469.255 203.512 468.379 206.952 C 456.477 253.695 503.75 284.637 528.818 315.99 C 534.349 322.907 538.314 331.475 542.8 339.126 C 539.325 326.273 534.686 312.756 528.262 301.074 C 523.986 293.296 518.653 286.081 514.003 278.52 C 499.739 255.321 496.833 233.735 498.478 206.933 A 508.889 508.889 0 0 1 528.382 224.224 C 526.819 234.864 525.795 245.022 527.158 255.75 C 531.754 291.922 562.919 327.368 558.976 362.197 C 553.538 410.223 507.454 455.06 498.029 500.067 C 495.449 512.386 495.895 524.246 496.666 536.732 C 497.289 535.614 497.874 534.489 498.472 533.358 C 503.105 524.609 505.575 514.787 508.763 505.44 A 197.497 197.497 0 0 1 519.983 479.004 C 531.756 455.562 548.701 434.797 560.737 411.195 C 592.403 349.105 575.514 303.015 555.6 241.263 C 572.588 251.375 588.231 262.574 604.097 274.341 C 606.759 307.59 618.029 363.597 607.306 393.462 C 600.569 412.223 589.069 430.104 579.484 447.518 C 567.501 469.289 555.018 491.315 547.025 514.945 C 538.686 539.601 535.278 564.361 531.759 589.991 C 530.021 602.645 528.861 616.105 525.078 628.324 C 517.048 579.982 494.849 534.614 472.451 491.526 C 486.105 434.14 524.645 410.702 530.363 344.186 C 525.324 358.467 519.838 371.98 512.231 385.125 C 494.912 415.055 470.138 443.07 462.574 477.466 C 454.021 467.735 445.518 457.389 434.931 449.811 C 452.787 434.465 468.448 415.059 474.497 391.869 C 479.733 371.797 475.96 355.3 465.717 337.623 C 468.912 354.918 463.731 370.298 457.567 386.296 C 450.154 376.366 439.996 368.569 428.852 363.228 C 401.289 350.017 360.546 352.938 332.222 362.834 C 368.655 366.458 394.201 367.446 419.256 397.683 C 424.851 405.287 429.089 413.102 432.811 421.763 C 426.287 427.894 419.808 433.801 412.715 439.285 A 318.92 318.92 0 0 0 394.052 421.53 C 359.13 391.166 304.873 367.284 257.858 370.594 C 306.368 383.76 355.807 412.587 387.242 452.14 C 378.746 454.147 370.103 455.677 361.54 457.382 C 351.69 445.995 341.178 435.802 328.97 426.93 C 301.202 406.75 263.535 387.8 228.4 393.222 C 267.841 405.723 308.491 432.928 337.672 462.156 L 311.56 468.77 C 297.792 447.431 277.047 435.639 252.474 430.18 C 229.531 425.084 209.516 429.379 189.821 441.785 C 199.204 439.013 207.99 437.25 217.815 437.451 C 246.2 438.031 274.817 454.338 294.083 474.416 C 271.301 483.375 260.063 494.785 246.392 514.646 C 246.195 514.278 245.992 513.911 245.8 513.54 C 242.4 506.966 238.936 501.635 233.412 496.585 C 218.142 482.622 183.311 468.167 163.779 459.815 C 205.784 466.363 219.02 471.11 256.727 491.203 C 235.174 466.2 202.398 453.075 170.258 449.18 C 175.126 441.269 182.76 433.575 188.662 426.272 C 201.453 410.444 214.254 394.326 225.891 377.628 C 239.676 357.849 263.363 305.002 279 293.196 C 289.435 285.316 301.984 280.218 313.814 274.831 C 336.966 264.291 364.23 250.73 381.182 231.268 C 349.386 252.472 310.395 261.185 279.293 282.923 C 257.417 298.213 246.682 324.669 233.942 347.211 A 293.558 293.558 0 0 1 214.252 377.309 C 195.555 402.362 173.635 424.779 154.348 449.34 L 141.548 444.909 C 166.698 411.464 200.736 385.394 224.072 350.366 C 252.036 308.39 239.312 283.568 285.058 245.41 C 295.947 236.328 328.525 215.882 343.077 218.366 C 345.722 218.818 346.613 219.811 348.206 221.834 L 344.548 222.642 L 345.307 223.338 C 334.289 227.614 323.064 231.886 312.625 237.459 C 285.69 251.842 256.429 272.772 247.095 303.192 C 275.471 272.101 308.218 251.887 346.324 234.725 C 356.859 229.981 367.691 224.774 378.923 221.952 C 364.83 218.403 353.007 212.435 343.92 200.689 C 320.34 170.207 322.72 120.219 327.178 83.8869 z"></path>
<path transform="translate(0,0)" fill="rgb(108,2,0)" d="M 438.175 316.135 C 445.734 316.644 453.383 317.023 460.779 318.767 C 484.286 324.312 500.585 338.467 513.099 358.57 C 505.766 355.367 499.569 348.221 492.48 344.114 C 474.897 333.926 454.623 328.04 438.175 316.135 z"></path>
<path transform="translate(0,0)" fill="rgb(108,2,0)" d="M 404.526 243.78 C 405.271 248.273 396.665 263.876 397.857 276.765 C 400.241 302.553 423.947 321.014 443.505 334.802 C 448.259 338.153 453.658 340.924 458.112 344.614 C 456.709 345.653 454.511 345.055 452.778 344.958 C 442.124 343.11 432.661 339.468 423.425 333.863 C 408.81 324.991 395.534 312.799 391.694 295.44 C 387.507 276.509 394.288 259.334 404.526 243.78 z"></path>
<path transform="translate(0,0)" fill="rgb(108,2,0)" d="M 341.025 296.361 C 346.977 285.989 352.75 275.482 359.995 265.935 C 355.738 279.031 347.246 290.774 343.633 303.839 C 344.556 305.584 345.012 305.996 346.498 307.189 L 345.89 305.542 L 345.405 308.241 L 341.227 308.904 C 336.324 317.436 332.259 327.493 321.939 330.539 C 315.649 332.396 307.363 332.498 300.811 332.11 C 299.454 332.094 299.566 332.119 297.976 331.966 C 292.352 331.424 290.041 329.788 286.518 325.43 L 285.779 324.501 C 284.663 325.118 283.636 325.733 282.597 326.48 C 282.287 326.703 281.982 326.934 281.675 327.161 C 281.636 322.709 285.018 319.262 287.94 316.19 C 298.946 304.617 312.913 292.338 329.817 292.268 C 334.85 292.247 337.372 292.875 341.025 296.361 z"></path>
<path transform="translate(0,0)" fill="rgb(254,253,253)" d="M 301.046 330.409 C 296.287 330.236 293.406 329.963 289.765 326.636 C 289.125 324.735 288.617 324.029 288.984 321.989 C 290.192 315.263 298.259 308.913 303.753 305.363 C 315.377 297.852 326.89 296.964 340.099 299.807 C 333.085 305.8 309.023 301.744 290.44 320.748 C 293.996 323.876 297.854 326.914 301.046 330.409 z"></path>
<path transform="translate(0,0)" fill="rgb(254,253,253)" d="M 718.665 379.384 C 727.267 386.28 735.017 395.438 742.77 403.312 C 743.468 418.592 744.013 434.19 740.441 449.177 C 737.492 461.55 731.567 472.898 724.399 483.335 C 700.669 517.887 668.341 533.06 635.862 556.872 C 617.472 570.355 600.387 585.585 586.334 603.618 A 193.555 193.555 0 0 0 567.885 632.081 C 560.15 646.62 537.275 698.229 539.308 713.122 L 540.506 722.227 C 566.526 665.628 602.448 616.48 654.402 580.988 C 678.658 564.417 704.426 549.597 726.621 530.22 C 753.405 506.837 771.539 476.649 773.959 440.684 C 780.052 448.55 785.469 456.732 790.716 465.175 A 345.609 345.609 0 0 0 773.371 515.323 C 768.511 534.384 765.24 555.396 756.926 573.296 C 739.311 611.228 699.351 619.646 663.626 632.552 C 622.099 647.554 588.609 673.39 569.748 714.184 C 549.428 758.132 549.503 812.223 565.938 857.339 C 573.885 844.218 581.989 831.227 591.545 819.193 C 632.431 767.702 690.958 726.704 748.734 696.377 C 782.82 678.485 811.34 668.831 838.185 639.291 C 811.916 698.558 734.39 710.915 722.509 787.417 C 714.216 840.811 745.685 879.1 774.735 919.68 L 817.345 979.784 C 806.173 929.342 772.247 877.446 766.514 829.469 C 757.092 750.629 820.072 722.245 860.805 669.497 C 889.04 632.932 887.134 601.731 881.41 557.987 C 892.316 567.486 904.167 575.805 915.523 584.75 C 917.527 597.13 916.935 608.974 913.231 620.982 C 898.951 667.271 847.851 710.139 825.445 756.155 C 800.833 806.703 810.606 860.182 828.382 910.965 C 826.163 868.755 829.77 820.483 846.078 781.267 C 851.608 767.969 859.06 755.661 867.129 743.768 C 884.256 718.524 904.395 695.349 921.6 669.997 C 920.289 708.517 912.928 746.476 908.349 784.675 A 1025.89 1025.89 0 0 0 902.022 910.339 C 902.191 930.264 901.745 952.346 905.758 971.922 C 911.866 932.57 916.066 893.544 924.162 854.436 C 938.27 786.286 978.532 679.541 960.116 613.185 C 976.769 623.89 994.597 632.653 1011.04 643.638 C 1011.15 674.53 1001.66 706.527 995.291 736.681 A 5241.99 5241.99 0 0 1 961.918 883.611 C 950.982 929.953 939.049 977.071 934.6 1024.57 C 939.433 1005.97 946.795 987.321 953.367 969.243 C 977.63 902.491 1006.62 835.986 1050.11 779.286 C 1078.32 742.502 1109.98 709.419 1153.52 691.323 C 1163.52 687.165 1173.68 683.25 1184.55 682.25 C 1199.08 680.913 1214.26 682.069 1228.89 681.965 A 508.932 508.932 0 0 0 1291.85 677.534 C 1250.83 720.302 1187.81 744.633 1143.75 784.263 C 1067.7 852.66 1042.59 959.605 1037.21 1057.79 C 1036.94 1073.14 1037.31 1088.2 1038.68 1103.49 C 1049.13 1069.21 1055.92 1033.93 1066.84 999.712 C 1094.23 913.884 1146.63 834.606 1218.64 779.916 C 1233.93 768.304 1250.06 757.958 1265.64 746.764 C 1295.03 725.65 1321.42 703.296 1345.8 676.532 C 1370.37 675.271 1393.43 676.594 1417.46 682.059 C 1401.78 698.73 1386.68 715.907 1367.82 729.155 C 1327.04 757.807 1280.71 774.264 1247.18 812.757 C 1179.18 890.81 1154.69 1004.86 1161.66 1106.1 C 1175.9 1003.61 1211.02 893.376 1295.1 826.322 C 1325.85 801.794 1362.41 784.918 1393.71 760.758 C 1419.29 741.009 1441.48 717.425 1465.56 695.972 A 248.612 248.612 0 0 1 1533.62 737.918 C 1470.36 772.446 1395.65 799.215 1349.14 856.489 C 1299.78 917.272 1271.42 1013.1 1279.55 1091.09 C 1288.97 1055.77 1297.75 1021.06 1313.09 987.698 C 1320.93 1016.42 1334.35 1044.64 1347.86 1071.08 C 1335.6 1075.98 1323.26 1081.04 1310.71 1085.15 C 1131.18 1143.88 960.6 1115.67 794.761 1031.1 C 818.638 1010.17 835.07 984.644 847.938 955.862 C 831.019 978.563 811.785 997.185 789.851 1014.96 C 781.135 992.027 772.89 968.239 759.258 947.665 C 731.224 905.355 693.89 883.407 644.766 873.213 A 272.812 272.812 0 0 1 678.859 893.694 C 713.305 918.171 731.034 952.616 745.086 991.465 C 750.365 1006.06 755.363 1020.85 757.99 1036.19 C 751.959 1040.36 745.603 1043.5 738.99 1046.63 A 1332.04 1332.04 0 0 0 729.165 1027.4 C 714.095 998.845 679.862 962.454 648.643 952.809 C 679.425 983.37 699.255 1019.9 718.164 1058.37 L 687.546 1073.78 C 674.713 1036.15 657.076 1005.9 629.785 976.856 C 643.468 957.609 654.861 938.444 665.071 917.166 C 647.193 934.286 632.444 954.386 615.391 972.283 A 2551.94 2551.94 0 0 0 593.04 953.016 C 606.739 875.667 652.543 820.19 701.618 762.349 C 643.546 799.664 599.309 858.338 563.908 916.602 C 544.546 881.134 537.788 858.142 535.414 817.624 C 533.791 789.929 535.568 762.242 536.52 734.565 C 537.087 718.058 534.993 691.013 537.136 676.471 C 538.639 666.263 543.695 655.829 547.839 646.468 C 567.748 601.5 596.084 564.948 630.696 530.489 C 650.953 510.322 674.556 492.98 693.417 471.578 C 719.608 441.859 721.237 417.343 718.665 379.384 z"></path>
</svg><style>@media (prefers-color-scheme: light) { :root { filter: none; } }
@media (prefers-color-scheme: dark) { :root { filter: none; } }
</style></svg>